<svg width="400" height="183" viewBox="0 0 400 183" fill="none" xmlns="http://www.w3.org/2000/svg">
<path fill-rule="evenodd" clip-rule="evenodd" d="M205.297 25.6089C204.845 25.6809 203.449 25.8719 202.195 26.0329C200.941 26.1949 199.821 26.4049 199.707 26.4999C199.592 26.5949 199.373 26.6249 199.22 26.5659C199.066 26.5069 198.889 26.5429 198.825 26.6459C198.762 26.7489 198.597 26.7899 198.46 26.7379C198.323 26.6849 198.158 26.7259 198.095 26.8289C198.031 26.9319 197.867 26.9729 197.73 26.9199C197.592 26.8679 197.428 26.9089 197.364 27.0119C197.301 27.1139 197.136 27.1559 196.999 27.1029C196.862 27.0499 196.697 27.0909 196.634 27.1939C196.57 27.2969 196.397 27.3349 196.25 27.2779C196.102 27.2219 195.982 27.2749 195.982 27.3969C195.982 27.5189 195.859 27.5719 195.708 27.5139C195.557 27.4559 195.434 27.4969 195.434 27.6049C195.434 27.7129 195.311 27.7539 195.16 27.6969C195.009 27.6389 194.886 27.6799 194.886 27.7879C194.886 27.8959 194.763 27.9369 194.612 27.8789C194.461 27.8209 194.338 27.8619 194.338 27.9699C194.338 28.0789 194.215 28.1199 194.064 28.0619C193.913 28.0039 193.79 28.0429 193.79 28.1489C193.79 28.2539 193.688 28.3069 193.563 28.2649C193.439 28.2239 193.223 28.3039 193.083 28.4429C192.944 28.5829 192.722 28.6559 192.591 28.6049C192.46 28.5549 192.327 28.5789 192.295 28.6589C192.263 28.7389 191.441 29.1519 190.467 29.5769C187.409 30.9119 184.17 32.9669 181.618 35.1899C180.901 35.8149 180.257 36.2689 180.187 36.1989C180.118 36.1299 180.082 36.1549 180.108 36.2559C180.166 36.4789 177.868 38.8279 177.658 38.7609C177.575 38.7339 177.555 38.7889 177.612 38.8829C177.67 38.9769 177.465 39.2659 177.155 39.5269C176.846 39.7869 176.647 39.9999 176.712 39.9999C176.778 39.9999 176.47 40.4319 176.027 40.9589C175.585 41.4859 174.948 42.3079 174.612 42.7849C174.277 43.2629 173.92 43.6529 173.82 43.6529C173.72 43.6529 173.685 43.6999 173.743 43.7579C173.8 43.8149 173.474 44.4939 173.017 45.2649C172.169 46.6959 170.465 50.3179 170.06 51.5529C169.936 51.9289 169.761 52.2369 169.672 52.2369C169.582 52.2369 169.556 52.3609 169.614 52.5109C169.672 52.6619 169.631 52.7849 169.523 52.7849C169.415 52.7849 169.374 52.9089 169.432 53.0589C169.489 53.2099 169.441 53.3329 169.324 53.3329C169.207 53.3329 169.152 53.3999 169.202 53.4809C169.328 53.6839 168.94 55.1599 168.762 55.1599C168.683 55.1599 168.662 55.3239 168.714 55.5249C168.767 55.7259 168.726 55.8899 168.623 55.8899C168.52 55.8899 168.479 56.0549 168.532 56.2559C168.587 56.4689 168.537 56.6209 168.411 56.6209C168.281 56.6209 168.239 56.7609 168.306 56.9709C168.367 57.1629 168.339 57.3689 168.244 57.4279C168.149 57.4869 168.111 57.6899 168.161 57.8789C168.21 58.0689 168.169 58.2739 168.07 58.3359C167.97 58.3969 167.929 58.6029 167.978 58.7919C168.028 58.9819 167.982 59.1899 167.876 59.2559C167.77 59.3209 167.73 59.6079 167.787 59.8939C167.844 60.1789 167.806 60.4649 167.702 60.5289C167.598 60.5929 167.557 60.9209 167.612 61.2589C167.667 61.5959 167.63 61.9219 167.53 61.9839C167.423 62.0499 167.386 62.5789 167.441 63.2609C167.502 64.0209 167.463 64.4689 167.329 64.5519C167.047 64.7259 167.045 68.4929 167.327 68.4929C167.463 68.4929 167.506 68.9109 167.458 69.7719C167.418 70.4749 167.458 71.0499 167.547 71.0499C167.637 71.0499 167.678 71.3789 167.64 71.7809C167.602 72.1829 167.623 72.5109 167.687 72.5109C167.751 72.5109 167.857 72.9619 167.921 73.5129C167.986 74.0629 168.127 74.9259 168.236 75.4299L168.432 76.3469H175.147H181.862L182.082 77.9449C182.677 82.2809 185.263 91.1419 185.933 91.1419C186.014 91.1419 186.131 91.3469 186.194 91.5979C186.284 91.9589 186.424 92.0549 186.859 92.0549C187.358 92.0549 187.391 92.0189 187.21 91.6809C185.088 87.7159 183.206 77.7699 183.202 70.5019C183.194 55.4759 188.524 44.3549 198.103 39.4069C199.854 38.5029 202.466 37.5469 202.734 37.7129C202.824 37.7689 202.944 37.7379 203.001 37.6459C203.059 37.5529 203.27 37.5199 203.471 37.5729C203.671 37.6249 203.836 37.5969 203.837 37.5099C203.838 37.4229 204.227 37.3339 204.703 37.3109C205.178 37.2889 205.596 37.1839 205.632 37.0779C205.671 36.9589 205.944 36.9309 206.338 37.0049C206.792 37.0899 207.028 37.0519 207.14 36.8729C207.266 36.6759 207.301 36.6729 207.303 36.8599C207.305 36.9959 207.398 37.0419 207.52 36.9669C207.639 36.8939 208.214 36.8539 208.799 36.8769C209.46 36.9039 209.863 36.8469 209.863 36.7249C209.863 36.6179 210.068 36.5299 210.32 36.5299C210.571 36.5299 210.776 36.6039 210.776 36.6949C210.776 36.7859 210.938 36.8179 211.136 36.7669C211.334 36.7149 211.736 36.7559 212.029 36.8589C212.405 36.9899 212.623 36.9849 212.765 36.8419C212.914 36.6929 213.127 36.6959 213.562 36.8529C213.888 36.9709 214.34 37.0189 214.566 36.9599C214.814 36.8949 214.977 36.9349 214.977 37.0599C214.977 37.1899 215.147 37.2239 215.434 37.1529C215.727 37.0789 215.89 37.1149 215.89 37.2529C215.89 37.3809 216.031 37.4229 216.24 37.3559C216.433 37.2949 216.647 37.3369 216.715 37.4479C216.784 37.5589 216.953 37.6069 217.09 37.5549C217.228 37.5019 217.392 37.5429 217.456 37.6459C217.519 37.7489 217.686 37.7889 217.827 37.7349C217.967 37.6809 218.082 37.7199 218.082 37.8219C218.082 37.9239 218.185 37.9899 218.311 37.9699C218.436 37.9489 218.785 38.0349 219.087 38.1599C219.388 38.2849 220.128 38.5749 220.731 38.8039C221.784 39.2029 224.213 40.4019 225.936 41.3729C226.388 41.6279 226.963 41.8139 227.215 41.7859L227.671 41.7349V34.9769V28.2189L227.26 28.1609C227.034 28.1289 226.849 28.0289 226.849 27.9379C226.849 27.8479 226.734 27.8179 226.594 27.8719C226.453 27.9259 226.286 27.8859 226.223 27.7829C226.159 27.6799 225.986 27.6419 225.839 27.6989C225.691 27.7549 225.571 27.7019 225.571 27.5799C225.571 27.4499 225.447 27.4049 225.274 27.4719C225.11 27.5349 224.867 27.4959 224.734 27.3849C224.6 27.2739 224.411 27.2329 224.313 27.2929C224.215 27.3539 224.082 27.3179 224.018 27.2149C223.954 27.1109 223.822 27.0759 223.724 27.1359C223.626 27.1969 223.43 27.1499 223.288 27.0319C223.146 26.9139 222.94 26.8729 222.831 26.9409C222.722 27.0079 222.524 26.9739 222.392 26.8639C222.26 26.7539 221.832 26.6359 221.441 26.6019C221.05 26.5679 220.607 26.4939 220.457 26.4359C220.306 26.3789 220.059 26.3249 219.909 26.3169C219.758 26.3089 218.731 26.1739 217.626 26.0169C215.382 25.6989 206.573 25.4079 205.297 25.6089ZM271.598 25.6079C271.146 25.6789 269.754 25.8669 268.504 26.0259C267.254 26.1849 266.134 26.3959 266.015 26.4939C265.897 26.5919 265.666 26.6219 265.503 26.5589C265.332 26.4939 265.205 26.5359 265.205 26.6589C265.205 26.7909 265.064 26.8289 264.84 26.7579C264.621 26.6889 264.475 26.7249 264.475 26.8489C264.475 26.9729 264.328 27.0099 264.11 26.9409C263.886 26.8699 263.744 26.9079 263.744 27.0389C263.744 27.1569 263.629 27.2089 263.488 27.1549C263.347 27.1009 263.176 27.1129 263.108 27.1819C263.039 27.2499 262.928 27.3129 262.861 27.3209C262.795 27.3299 262.502 27.4349 262.212 27.5549C261.922 27.6749 261.645 27.7329 261.597 27.6849C261.549 27.6369 261.386 27.7199 261.236 27.8709C261.085 28.0209 260.87 28.1129 260.757 28.0759C260.644 28.0379 260.437 28.1209 260.298 28.2609C260.158 28.3999 259.937 28.4729 259.806 28.4229C259.674 28.3719 259.541 28.3919 259.51 28.4679C259.478 28.5429 258.795 28.9559 257.991 29.3869C255.751 30.5879 254.27 31.6349 252.97 32.9359C252.319 33.5889 251.71 34.0769 251.618 34.0199C251.526 33.9629 251.507 34.0069 251.576 34.1189C251.645 34.2299 251.323 34.8349 250.86 35.4639C250.169 36.4029 248.574 39.3429 248.474 39.8629C248.459 39.9379 248.427 40.0409 248.402 40.0909C248.377 40.1419 248.345 40.2439 248.331 40.3199C248.316 40.3949 248.249 40.5449 248.18 40.6519C248.031 40.8859 247.824 41.7759 247.801 42.2829C247.792 42.4839 247.721 42.6919 247.644 42.7459C247.363 42.9409 247.067 50.9579 247.341 50.9589C247.41 50.9589 247.492 51.2669 247.523 51.6439L247.58 52.3289L251.826 52.3779L256.073 52.4269L256.085 53.0169C256.093 53.4029 256.241 53.0369 256.513 51.9629C258.114 45.6289 263.078 39.5939 267.739 38.3149C268.103 38.2149 269.105 37.8989 269.964 37.6109C271.936 36.9519 276.511 36.4359 277.443 36.7679C277.594 36.8219 278.169 36.9169 278.721 36.9789C281.42 37.2829 284.562 38.1879 287.094 39.3889C288.747 40.1739 288.695 40.1539 289.452 40.2959L290.046 40.4069V34.3459C290.046 28.1719 289.994 27.6879 289.359 27.8999C289.234 27.9419 289.132 27.8939 289.132 27.7949C289.132 27.6949 288.968 27.6569 288.767 27.7099C288.566 27.7619 288.402 27.7159 288.402 27.6069C288.402 27.4979 288.279 27.4559 288.128 27.5139C287.977 27.5719 287.854 27.5219 287.854 27.4039C287.854 27.2729 287.712 27.2349 287.489 27.3059C287.27 27.3749 287.123 27.3389 287.123 27.2149C287.123 27.0899 286.977 27.0539 286.758 27.1229C286.534 27.1939 286.393 27.1559 286.393 27.0249C286.393 26.9019 286.266 26.8589 286.096 26.9239C285.932 26.9869 285.694 26.9519 285.567 26.8459C285.439 26.7399 285.265 26.6699 285.179 26.6889C285.093 26.7089 284.875 26.6599 284.695 26.5819C284.515 26.5029 284.317 26.4889 284.256 26.5509C284.194 26.6129 284.053 26.5909 283.944 26.5019C283.268 25.9569 273.766 25.2689 271.598 25.6079ZM56.073 25.7799C55.219 25.8679 54.11 26.0239 53.607 26.1279C53.105 26.2309 52.571 26.3239 52.42 26.3339C52.269 26.3429 52.054 26.4239 51.941 26.5119C51.828 26.6009 51.61 26.6249 51.457 26.5659C51.304 26.5069 51.122 26.5499 51.053 26.6619C50.984 26.7729 50.771 26.8139 50.578 26.7529C50.374 26.6879 50.228 26.7279 50.228 26.8489C50.228 26.9729 50.082 27.0099 49.863 26.9409C49.639 26.8699 49.498 26.9079 49.498 27.0389C49.498 27.1569 49.377 27.2069 49.23 27.1509C49.082 27.0939 48.909 27.1319 48.846 27.2349C48.782 27.3379 48.615 27.3779 48.475 27.3239C48.334 27.2699 48.219 27.3139 48.219 27.4229C48.219 27.5309 48.099 27.5729 47.951 27.5159C47.804 27.4599 47.631 27.4969 47.567 27.5999C47.504 27.7029 47.337 27.7429 47.196 27.6889C47.056 27.6349 46.941 27.6529 46.941 27.7289C46.941 27.8949 45.275 28.5319 45.155 28.4119C45.109 28.3659 44.947 28.4519 44.795 28.6039C44.643 28.7549 44.412 28.8379 44.28 28.7879C44.149 28.7379 44.016 28.7589 43.984 28.8349C43.953 28.9109 42.982 29.4269 41.826 29.9809C40.671 30.5359 39.117 31.3699 38.373 31.8349C37.628 32.2989 36.93 32.6279 36.82 32.5659C36.711 32.5039 36.68 32.5179 36.752 32.5979C36.824 32.6779 36.495 33.0349 36.022 33.3919C34.378 34.6289 31.852 36.8669 30.595 38.1989C29.9 38.9359 29.403 39.4159 29.49 39.2669C29.584 39.1049 29.581 39.0569 29.481 39.1479C29.39 39.2309 29.315 39.3589 29.315 39.4299C29.315 39.5019 28.73 40.2969 28.014 41.1959C25.881 43.8769 24.453 46.2909 22.935 49.7819C22.61 50.5299 22.31 51.1069 22.268 51.0659C22.226 51.0239 22.179 51.2059 22.163 51.4709C22.147 51.7359 22.049 51.9809 21.945 52.0149C21.841 52.0499 21.801 52.1959 21.856 52.3409C21.912 52.4849 21.886 52.6029 21.8 52.6029C21.714 52.6029 21.631 52.8259 21.615 53.0999C21.599 53.3729 21.501 53.6239 21.397 53.6589C21.293 53.6939 21.253 53.8399 21.308 53.9839C21.364 54.1289 21.321 54.2469 21.212 54.2469C21.104 54.2469 21.058 54.3559 21.109 54.4889C21.16 54.6219 21.103 54.9719 20.983 55.2649C20.862 55.5589 20.779 55.8959 20.797 56.0139C20.816 56.1319 20.755 56.2759 20.661 56.3329C20.568 56.3909 20.534 56.6029 20.586 56.8039C20.639 57.0049 20.593 57.1689 20.484 57.1689C20.375 57.1689 20.337 57.3039 20.401 57.4689C20.471 57.6529 20.385 57.8659 20.177 58.0169C19.991 58.1529 19.937 58.2649 20.056 58.2649C20.176 58.2649 20.274 58.4289 20.274 58.6299C20.274 58.8309 20.206 58.9949 20.123 58.9949C20.04 58.9949 20.008 59.2419 20.052 59.5429C20.098 59.8559 20.05 60.0909 19.941 60.0909C19.825 60.0909 19.789 60.3349 19.849 60.7069C19.904 61.0459 19.87 61.3729 19.772 61.4329C19.675 61.4919 19.636 61.9549 19.684 62.4599C19.733 62.9659 19.7 63.3789 19.612 63.3789C19.427 63.3789 19.453 69.3369 19.64 69.8169C19.709 69.9919 19.733 70.4649 19.695 70.8669C19.656 71.2689 19.697 71.5979 19.786 71.5979C19.875 71.5979 19.916 71.9259 19.878 72.3269C19.839 72.7279 19.857 73.0769 19.917 73.1029C19.977 73.1289 20.144 73.8489 20.287 74.7029L20.548 76.2559L27.252 76.3039L33.957 76.3519L34.053 76.9429C35.383 85.1099 37.667 92.0549 39.024 92.0549C39.4 92.0549 39.464 91.9919 39.353 91.7349C32.304 75.4139 34.673 53.4959 44.552 43.6429C47.532 40.6709 53.889 37.0449 54.96 37.7059C55.056 37.7659 55.184 37.7339 55.244 37.6369C55.305 37.5389 55.467 37.5019 55.604 37.5549C55.741 37.6069 55.906 37.5659 55.969 37.4629C56.033 37.3599 56.201 37.3209 56.344 37.3759C56.487 37.4309 56.71 37.4089 56.841 37.3279C56.971 37.2469 57.255 37.2029 57.471 37.2309C57.688 37.2589 57.917 37.1969 57.981 37.0939C58.044 36.9909 58.34 36.9559 58.637 37.0149C59.026 37.0929 59.179 37.0529 59.181 36.8719C59.183 36.6729 59.224 36.6779 59.377 36.8949C59.499 37.0669 59.602 37.0949 59.653 36.9719C59.704 36.8499 60.116 36.8059 60.735 36.8569C61.348 36.9079 61.834 36.8579 61.992 36.7269C62.181 36.5699 62.558 36.5609 63.408 36.6939C64.045 36.7939 64.895 36.8759 65.297 36.8779C66.795 36.8839 67.032 36.9139 67.032 37.0989C67.032 37.2149 67.245 37.2419 67.58 37.1689C67.948 37.0879 68.128 37.1199 68.128 37.2649C68.128 37.3849 68.253 37.4339 68.409 37.3739C68.564 37.3149 68.831 37.3469 69.003 37.4449C69.174 37.5429 70.137 37.8799 71.142 38.1929C72.935 38.7519 75.463 39.8879 77.803 41.1859C79.862 42.3279 79.718 42.7589 79.777 35.2509C79.835 27.8069 79.86 28.0509 79.05 27.9949C78.72 27.9719 78.425 27.8779 78.394 27.7859C78.364 27.6939 78.178 27.6609 77.982 27.7119C77.772 27.7669 77.626 27.7129 77.626 27.5819C77.626 27.4589 77.505 27.4039 77.357 27.4609C77.21 27.5179 77.037 27.4799 76.974 27.3769C76.91 27.2739 76.74 27.2349 76.596 27.2899C76.451 27.3459 76.286 27.2669 76.227 27.1159C76.143 26.8959 76.068 26.8849 75.855 27.0609C75.645 27.2349 75.557 27.2319 75.44 27.0419C75.359 26.9099 75.197 26.8609 75.081 26.9329C74.965 27.0049 74.754 26.9669 74.612 26.8489C74.47 26.7319 74.268 26.6879 74.163 26.7529C74.058 26.8179 73.87 26.8049 73.744 26.7239C73.619 26.6439 73.352 26.5599 73.151 26.5379C72.95 26.5159 72.11 26.3769 71.285 26.2289C67.869 25.6139 59.947 25.3799 56.073 25.7799ZM317.306 27.1699L304.292 27.2169V27.8329C304.292 28.1869 304.422 28.5549 304.598 28.6989C305.251 29.2349 306.47 31.0969 306.998 32.3669C308.26 35.4039 308.281 35.8309 308.298 60.0459L308.311 76.7119H316.519C321.374 76.7119 324.77 76.7819 324.832 76.8819C324.89 76.9749 324.99 80.1399 325.055 83.9139L325.173 90.7759H325.904H326.635L326.537 77.4889C326.391 57.6229 326.626 36.2139 327.005 34.7499C327.448 33.0419 328.293 31.3189 329.421 29.8199C330.286 28.6709 330.423 28.3799 330.375 27.8009L330.32 27.1229L317.306 27.1699ZM90.594 27.9259C90.594 28.3719 90.69 28.6739 90.853 28.7359C91.484 28.9789 93.915 32.8799 93.746 33.3789C93.703 33.5049 93.766 33.6069 93.886 33.6069C94.005 33.6069 94.057 33.7279 94 33.8749C93.944 34.0229 93.981 34.1959 94.084 34.2589C94.187 34.3229 94.228 34.4869 94.176 34.6239C94.123 34.7619 94.165 34.9269 94.269 34.9909C94.374 35.0559 94.41 35.3049 94.349 35.5449C94.289 35.7849 94.303 35.9819 94.38 35.9819C94.457 35.9819 94.495 44.7969 94.464 55.5709C94.432 66.3449 94.459 75.6739 94.524 76.3009L94.641 77.4429H103.006H111.371L111.467 81.4159C111.604 87.0959 112.613 91.3279 113.865 91.4749C114.283 91.5239 114.354 91.4759 114.27 91.2009C113.532 88.7599 112.909 85.4779 112.856 83.7439C112.789 81.5509 112.819 73.1419 112.957 55.1599C113.132 32.3199 112.985 33.6289 115.819 29.7289C116.486 28.8109 116.712 28.3359 116.712 27.8569V27.2149H103.653H90.594V27.9259ZM19.909 123.836V124.933L36.21 124.887L52.511 124.84V123.836V122.831L36.21 122.784L19.909 122.738V123.836ZM348.493 123.836V124.932H364.749H381.005V123.836V122.74H364.749H348.493V123.836ZM19.909 156.256V157.26H200.457H381.005V156.256V155.251H200.457H19.909V156.256Z" fill="#C25D5C"/>
<path fill-rule="evenodd" clip-rule="evenodd" d="M59.954 25.524C60.833 25.558 62.272 25.558 63.151 25.524C64.03 25.491 63.311 25.463 61.553 25.463C59.795 25.463 59.075 25.491 59.954 25.524ZM207.909 25.524C208.792 25.558 210.19 25.558 211.014 25.524C211.837 25.49 211.114 25.463 209.406 25.463C207.699 25.463 207.025 25.491 207.909 25.524ZM272.831 25.517C273.057 25.561 273.427 25.561 273.653 25.517C273.879 25.473 273.694 25.438 273.242 25.438C272.79 25.438 272.605 25.473 272.831 25.517ZM275.391 25.52C275.72 25.561 276.213 25.56 276.487 25.519C276.762 25.477 276.493 25.444 275.89 25.445C275.288 25.446 275.063 25.48 275.391 25.52ZM56.304 25.702C56.582 25.744 56.992 25.743 57.217 25.699C57.442 25.656 57.215 25.622 56.712 25.623C56.21 25.624 56.026 25.66 56.304 25.702ZM66.442 25.703C66.77 25.744 67.263 25.743 67.538 25.701C67.812 25.66 67.543 25.626 66.941 25.627C66.338 25.628 66.113 25.662 66.442 25.703ZM204.155 25.7C204.381 25.743 204.751 25.743 204.977 25.7C205.203 25.656 205.018 25.621 204.566 25.621C204.114 25.621 203.929 25.656 204.155 25.7ZM214.201 25.703C214.527 25.743 215.062 25.743 215.388 25.703C215.715 25.662 215.447 25.629 214.795 25.629C214.142 25.629 213.874 25.662 214.201 25.703ZM270.368 25.702C270.645 25.744 271.056 25.743 271.281 25.699C271.506 25.656 271.279 25.622 270.776 25.623C270.274 25.624 270.09 25.66 270.368 25.702ZM278.037 25.702C278.313 25.743 278.765 25.743 279.041 25.702C279.317 25.66 279.091 25.626 278.539 25.626C277.986 25.626 277.76 25.66 278.037 25.702ZM54.658 25.879C54.833 25.925 55.121 25.925 55.297 25.879C55.473 25.833 55.329 25.796 54.977 25.796C54.626 25.796 54.482 25.833 54.658 25.879ZM68.815 25.883C69.042 25.926 69.371 25.925 69.546 25.879C69.72 25.833 69.534 25.797 69.132 25.799C68.731 25.802 68.588 25.839 68.815 25.883ZM202.42 25.879C202.596 25.925 202.884 25.925 203.059 25.879C203.235 25.833 203.091 25.796 202.74 25.796C202.388 25.796 202.244 25.833 202.42 25.879ZM216.577 25.883C216.805 25.926 217.133 25.925 217.308 25.879C217.483 25.833 217.297 25.797 216.895 25.799C216.493 25.802 216.35 25.839 216.577 25.883ZM268.721 25.879C268.897 25.925 269.185 25.925 269.361 25.879C269.537 25.833 269.393 25.796 269.041 25.796C268.689 25.796 268.546 25.833 268.721 25.879ZM280.228 25.879C280.404 25.925 280.692 25.925 280.868 25.879C281.043 25.833 280.9 25.796 280.548 25.796C280.196 25.796 280.053 25.833 280.228 25.879ZM218.128 26.062C218.304 26.108 218.591 26.108 218.767 26.062C218.943 26.016 218.799 25.978 218.447 25.978C218.096 25.978 217.952 26.016 218.128 26.062ZM51.47 26.521C51.641 26.691 51.738 26.691 51.909 26.521C52.079 26.35 52.03 26.301 51.689 26.301C51.349 26.301 51.3 26.35 51.47 26.521ZM72.757 26.508C72.999 26.649 73.152 26.647 73.296 26.503C73.443 26.356 73.352 26.303 72.959 26.307C72.487 26.312 72.462 26.337 72.757 26.508ZM199.233 26.521C199.403 26.691 199.501 26.691 199.671 26.521C199.842 26.35 199.793 26.301 199.452 26.301C199.111 26.301 199.062 26.35 199.233 26.521ZM220.603 26.521C220.773 26.691 220.871 26.691 221.041 26.521C221.212 26.35 221.163 26.301 220.822 26.301C220.481 26.301 220.432 26.35 220.603 26.521ZM74.667 26.886C74.837 27.056 74.935 27.056 75.105 26.886C75.275 26.715 75.227 26.667 74.886 26.667C74.545 26.667 74.496 26.715 74.667 26.886ZM222.429 26.886C222.6 27.056 222.697 27.056 222.868 26.886C223.038 26.715 222.989 26.667 222.648 26.667C222.307 26.667 222.259 26.715 222.429 26.886ZM262.466 27.177C261.496 27.532 261.463 27.551 261.588 27.676C261.641 27.729 261.922 27.675 262.212 27.555C262.502 27.435 262.795 27.33 262.861 27.321C262.928 27.313 263.039 27.25 263.108 27.182C263.176 27.113 263.347 27.101 263.488 27.155C263.629 27.209 263.744 27.163 263.744 27.052C263.744 26.785 263.46 26.813 262.466 27.177ZM224.002 27.189C224.075 27.307 224.215 27.354 224.313 27.293C224.411 27.233 224.613 27.284 224.761 27.408C225.006 27.611 225.388 27.519 225.177 27.308C224.959 27.089 223.873 26.98 224.002 27.189ZM310.927 27.169C314.525 27.197 320.361 27.197 323.895 27.169C327.428 27.141 324.484 27.118 317.352 27.118C310.219 27.119 307.328 27.141 310.927 27.169ZM47.443 27.341C47.267 27.386 47.123 27.5 47.123 27.593C47.123 27.815 47.437 27.811 47.575 27.588C47.634 27.492 47.804 27.46 47.951 27.516C48.099 27.573 48.219 27.528 48.219 27.417C48.219 27.211 48.015 27.191 47.443 27.341ZM76.981 27.389C77.041 27.485 77.21 27.518 77.357 27.461C77.505 27.404 77.626 27.449 77.626 27.56C77.626 27.672 77.749 27.763 77.9 27.763C78.322 27.763 78.224 27.453 77.763 27.33C77.159 27.168 76.859 27.191 76.981 27.389ZM45.89 27.905C45.463 28.069 45.114 28.277 45.114 28.368C45.114 28.458 45.217 28.494 45.342 28.447C45.468 28.4 45.879 28.252 46.256 28.117C46.632 27.982 46.941 27.806 46.941 27.726C46.941 27.531 46.804 27.554 45.89 27.905ZM78.356 27.721C78.356 27.903 79.293 28.162 79.437 28.02C79.558 27.9 79.396 27.801 78.858 27.666C78.563 27.592 78.356 27.615 78.356 27.721ZM260.959 27.718C260.783 27.757 260.639 27.866 260.639 27.959C260.639 28.173 260.837 28.17 261.182 27.952C261.51 27.745 261.393 27.622 260.959 27.718ZM226.849 27.904C226.849 28.004 227.055 28.125 227.306 28.173C227.557 28.221 227.763 28.189 227.763 28.103C227.763 28.016 227.687 27.945 227.595 27.945C227.503 27.945 227.297 27.895 227.138 27.834C226.979 27.773 226.849 27.805 226.849 27.904ZM289.68 27.945C289.68 28.046 289.763 28.128 289.863 28.128C289.981 28.128 290.046 30.289 290.046 34.247C290.046 37.612 290.115 40.365 290.199 40.365C290.283 40.365 290.339 39.071 290.323 37.489C290.306 35.906 290.278 33.071 290.261 31.187C290.233 28.279 290.187 27.763 289.954 27.763C289.804 27.763 289.68 27.845 289.68 27.945ZM79.726 34.903C79.726 38.711 79.788 41.826 79.863 41.826C80.042 41.826 80.042 28.175 79.863 28.065C79.788 28.018 79.726 31.095 79.726 34.903ZM260.046 28.084C259.87 28.123 259.726 28.231 259.726 28.324C259.726 28.538 259.924 28.536 260.269 28.318C260.597 28.11 260.48 27.987 260.046 28.084ZM192.831 28.266C192.655 28.305 192.511 28.413 192.511 28.507C192.511 28.721 192.709 28.718 193.054 28.5C193.382 28.293 193.265 28.17 192.831 28.266ZM44.521 28.449C44.345 28.488 44.201 28.596 44.201 28.689C44.201 28.903 44.399 28.901 44.744 28.683C45.072 28.475 44.954 28.352 44.521 28.449ZM258.699 28.742C254.264 31.042 251.131 33.936 249.346 37.381C248.701 38.626 247.847 40.796 247.865 41.146C247.875 41.336 248.193 40.754 248.317 40.32C248.339 40.244 248.377 40.142 248.402 40.091C248.427 40.041 248.459 39.938 248.474 39.863C249.095 36.637 253.513 31.776 257.991 29.393C259.638 28.516 259.632 28.519 259.528 28.422C259.486 28.384 259.113 28.527 258.699 28.742ZM189.993 29.585C188.766 30.185 187.763 30.721 187.763 30.774C187.763 30.828 188.317 30.596 188.995 30.259C189.674 29.922 190.701 29.454 191.279 29.219C191.856 28.984 192.329 28.724 192.329 28.642C192.329 28.432 192.442 28.386 189.993 29.585ZM304.904 29.226C305.256 29.68 305.879 30.623 306.288 31.324C306.697 32.024 307.032 32.528 307.032 32.443C307.032 32.047 305.832 30.105 305.09 29.299L304.263 28.402L304.904 29.226ZM41.368 30.019C38.995 31.242 37.26 32.271 37.26 32.455C37.26 32.543 37.34 32.498 38.708 31.628C39.254 31.281 40.651 30.544 41.813 29.99C44.123 28.889 44.114 28.894 44.001 28.78C43.958 28.737 42.773 29.294 41.368 30.019ZM91.738 29.995C92.289 30.763 92.929 31.845 93.158 32.4C93.388 32.955 93.642 33.368 93.723 33.318C94.016 33.137 91.835 29.51 91.032 28.844C90.87 28.709 91.187 29.226 91.738 29.995ZM186.712 31.336C186.285 31.592 185.936 31.845 185.936 31.897C185.936 31.996 187.168 31.296 187.479 31.021C187.793 30.743 187.501 30.864 186.712 31.336ZM184.632 32.632C182.655 33.983 181.424 34.996 179.817 36.593L178.174 38.228L180.183 36.435C181.929 34.877 183.83 33.365 185.393 32.293C185.641 32.122 185.792 31.978 185.728 31.973C185.664 31.968 185.171 32.264 184.632 32.632ZM35.957 33.177C34.188 34.379 32.147 36.29 28.879 39.804C27.841 40.92 25.847 43.624 25.97 43.748C26.015 43.793 26.386 43.358 26.796 42.782C29.271 39.3 32.793 35.769 36.623 32.928C37.508 32.272 37.021 32.454 35.957 33.177ZM307.061 32.785C307.06 32.886 307.171 33.256 307.306 33.607C307.441 33.959 307.555 34.123 307.558 33.973C307.561 33.822 307.451 33.452 307.313 33.151C307.175 32.849 307.061 32.685 307.061 32.785ZM94.064 35.24C94.064 35.447 94.146 35.616 94.247 35.616C94.347 35.616 94.429 35.498 94.429 35.353C94.429 35.208 94.347 35.039 94.247 34.977C94.146 34.915 94.064 35.034 94.064 35.24ZM94.247 36.621C94.247 36.973 94.329 37.26 94.429 37.26C94.53 37.26 94.612 36.973 94.612 36.621C94.612 36.269 94.53 35.982 94.429 35.982C94.329 35.982 94.247 36.269 94.247 36.621ZM307.945 66.644C307.945 100.885 308.052 98.177 306.573 101.279C306.142 102.183 305.452 103.305 305.041 103.772C304.461 104.431 304.292 104.77 304.292 105.279V105.936H317.352H330.411V105.188C330.411 104.573 330.279 104.289 329.665 103.593C327.499 101.131 326.575 97.944 326.575 92.927V90.776H325.874H325.173L325.055 83.914C324.99 80.14 324.89 76.975 324.832 76.882C324.77 76.782 321.374 76.712 316.519 76.712H308.311L308.302 60.228C308.294 44.641 308.198 36.356 308.023 36.181C307.98 36.138 307.945 49.847 307.945 66.644ZM62.015 36.704C61.937 36.829 62.259 36.895 62.942 36.895C64.163 36.895 64.177 36.809 62.984 36.636C62.455 36.559 62.088 36.585 62.015 36.704ZM209.863 36.712C209.863 36.813 210.068 36.895 210.32 36.895C210.571 36.895 210.776 36.813 210.776 36.712C210.776 36.612 210.571 36.53 210.32 36.53C210.068 36.53 209.863 36.612 209.863 36.712ZM64.932 36.895C64.864 37.005 65.096 37.077 65.514 37.075C66.031 37.073 66.139 37.026 65.936 36.895C65.579 36.664 65.074 36.664 64.932 36.895ZM212.694 36.895C212.626 37.005 212.859 37.077 213.277 37.075C213.793 37.073 213.902 37.026 213.699 36.895C213.341 36.664 212.837 36.664 212.694 36.895ZM66.484 37.078C66.484 37.178 66.607 37.26 66.758 37.26C66.909 37.26 67.032 37.178 67.032 37.078C67.032 36.977 66.909 36.895 66.758 36.895C66.607 36.895 66.484 36.977 66.484 37.078ZM214.338 37.078C214.276 37.178 214.394 37.26 214.601 37.26C214.808 37.26 214.977 37.178 214.977 37.078C214.977 36.977 214.859 36.895 214.714 36.895C214.569 36.895 214.4 36.977 214.338 37.078ZM67.489 37.26C67.426 37.361 67.545 37.443 67.752 37.443C67.959 37.443 68.128 37.361 68.128 37.26C68.128 37.16 68.009 37.078 67.865 37.078C67.72 37.078 67.551 37.16 67.489 37.26ZM215.342 37.26C215.342 37.361 215.466 37.443 215.616 37.443C215.767 37.443 215.89 37.361 215.89 37.26C215.89 37.16 215.767 37.078 215.616 37.078C215.466 37.078 215.342 37.16 215.342 37.26ZM53.185 38.116C52.45 38.369 51.878 38.606 51.914 38.641C51.99 38.717 54.797 37.866 54.94 37.724C55.143 37.521 54.477 37.669 53.185 38.116ZM201.005 38.14C200.201 38.42 199.379 38.754 199.178 38.882L198.813 39.114L199.178 38.984C199.379 38.912 200.24 38.613 201.092 38.32C201.943 38.026 202.676 37.75 202.72 37.706C202.898 37.528 202.395 37.655 201.005 38.14ZM218.361 37.984C218.285 38.107 219.555 38.588 219.666 38.477C219.693 38.45 219.429 38.298 219.079 38.139C218.729 37.98 218.406 37.91 218.361 37.984ZM177.479 38.974C177.107 39.314 176.804 39.66 176.804 39.742C176.804 39.824 177.132 39.57 177.534 39.178C177.936 38.786 178.265 38.44 178.265 38.41C178.265 38.284 178.117 38.39 177.479 38.974ZM266.804 38.643C266.527 38.793 266.301 38.956 266.301 39.006C266.301 39.056 266.527 38.982 266.804 38.843C267.08 38.703 267.429 38.543 267.58 38.487C267.823 38.396 267.823 38.384 267.58 38.378C267.429 38.374 267.08 38.493 266.804 38.643ZM72.858 38.921C73.299 39.117 73.693 39.245 73.733 39.205C73.812 39.126 72.404 38.531 72.188 38.552C72.115 38.559 72.416 38.725 72.858 38.921ZM50.183 39.374C49.474 39.758 49.555 39.891 50.274 39.525C50.962 39.175 51.084 39.084 50.852 39.094C50.76 39.098 50.459 39.224 50.183 39.374ZM73.988 39.339C74.174 39.51 76.712 40.726 76.712 40.644C76.712 40.542 74.237 39.269 74.038 39.269C73.969 39.269 73.946 39.301 73.988 39.339ZM264.974 39.733C264.599 39.987 264.292 40.235 264.292 40.283C264.292 40.331 264.621 40.153 265.023 39.887C265.661 39.465 265.876 39.269 265.704 39.269C265.678 39.269 265.349 39.478 264.974 39.733ZM176.128 40.411C175.547 41.048 173.848 43.498 173.929 43.579C173.97 43.62 174.277 43.262 174.613 42.785C174.948 42.308 175.585 41.486 176.027 40.959C176.805 40.032 176.888 39.576 176.128 40.411ZM223.777 40.259C223.993 40.505 226.333 41.827 226.55 41.825C226.664 41.825 226.553 41.715 226.301 41.582C226.05 41.449 225.352 41.066 224.749 40.73C224.146 40.393 223.709 40.182 223.777 40.259ZM76.895 40.804C76.895 40.94 78.553 41.852 78.693 41.793C78.768 41.761 78.395 41.509 77.863 41.233C77.33 40.956 76.895 40.764 76.895 40.804ZM261.543 42.511L260.913 43.196L261.598 42.567C262.236 41.981 262.367 41.826 262.228 41.826C262.197 41.826 261.889 42.135 261.543 42.511ZM247.126 44.612C247.128 45.062 247.172 45.139 247.306 44.932C247.538 44.573 247.538 44.018 247.306 44.018C247.205 44.018 247.125 44.285 247.126 44.612ZM172.511 45.845C172.356 46.146 172.269 46.393 172.319 46.393C172.37 46.393 172.538 46.146 172.694 45.845C172.85 45.543 172.936 45.297 172.886 45.297C172.836 45.297 172.667 45.543 172.511 45.845ZM24.384 46.393C24.129 46.895 23.962 47.306 24.012 47.306C24.062 47.306 24.312 46.895 24.566 46.393C24.821 45.89 24.988 45.479 24.938 45.479C24.887 45.479 24.638 45.89 24.384 46.393ZM246.951 48.128C246.965 49.484 247.05 50.64 247.141 50.696C247.236 50.755 247.306 49.711 247.306 48.23C247.306 46.577 247.238 45.662 247.116 45.662C246.994 45.662 246.935 46.53 246.951 48.128ZM170.931 48.904C169.87 51.162 169.456 52.237 169.649 52.237C169.723 52.237 170.078 51.518 170.438 50.639C170.799 49.76 171.309 48.568 171.572 47.991C171.835 47.413 172.006 46.941 171.952 46.941C171.898 46.941 171.439 47.824 170.931 48.904ZM23.108 48.994C22.726 49.824 22.288 50.79 22.135 51.142C21.982 51.493 21.824 51.842 21.785 51.918C21.746 51.993 21.801 52.055 21.907 52.055C22.013 52.055 22.1 51.969 22.1 51.864C22.1 51.759 22.509 50.757 23.009 49.637C23.509 48.517 23.892 47.575 23.86 47.544C23.829 47.512 23.49 48.165 23.108 48.994ZM187.671 49.863C187.515 50.164 187.429 50.411 187.479 50.411C187.529 50.411 187.698 50.164 187.854 49.863C188.01 49.562 188.096 49.315 188.046 49.315C187.996 49.315 187.827 49.562 187.671 49.863ZM39.351 50.795C38.992 51.508 38.728 52.122 38.764 52.158C38.801 52.195 39.134 51.611 39.505 50.861C39.876 50.111 40.14 49.498 40.092 49.498C40.044 49.498 39.711 50.081 39.351 50.795ZM256.821 50.712C256.717 51.099 256.513 51.909 256.368 52.511C256.162 53.366 256.1 53.477 256.088 53.017L256.073 52.427L251.826 52.378L247.58 52.329L247.523 51.644C247.465 50.94 247.123 50.668 247.123 51.326C247.123 55.794 251.792 63.281 256.895 66.999C257.397 67.364 257.917 67.768 258.05 67.896C258.821 68.638 258.764 68.138 257.834 66.027C256.011 61.887 255.622 56.501 256.792 51.599C257.145 50.118 257.168 49.421 256.821 50.712ZM21.307 53.188C21.208 53.566 21.285 53.854 21.438 53.683C21.624 53.477 21.738 52.785 21.586 52.785C21.491 52.785 21.365 52.967 21.307 53.188ZM168.796 54.222C168.542 55.071 168.537 55.16 168.747 55.16C168.837 55.16 168.964 54.934 169.03 54.658C169.096 54.381 169.192 54.011 169.245 53.836C169.297 53.66 169.265 53.516 169.174 53.516C169.082 53.516 168.912 53.834 168.796 54.222ZM20.57 55.608C20.219 57.006 20.209 57.169 20.478 57.169C20.592 57.169 20.64 57.008 20.586 56.804C20.534 56.603 20.568 56.391 20.661 56.333C20.755 56.276 20.816 56.132 20.797 56.014C20.779 55.896 20.859 55.568 20.975 55.285C21.229 54.67 21.243 54.429 21.027 54.429C20.939 54.429 20.733 54.96 20.57 55.608ZM112.926 55.89C112.926 56.342 112.962 56.527 113.006 56.301C113.049 56.075 113.049 55.705 113.006 55.479C112.962 55.253 112.926 55.438 112.926 55.89ZM168.402 55.616C168.402 55.767 168.484 55.89 168.584 55.89C168.685 55.89 168.767 55.767 168.767 55.616C168.767 55.466 168.685 55.342 168.584 55.342C168.484 55.342 168.402 55.466 168.402 55.616ZM168.219 56.347C168.219 56.498 168.301 56.621 168.402 56.621C168.502 56.621 168.584 56.498 168.584 56.347C168.584 56.196 168.502 56.073 168.402 56.073C168.301 56.073 168.219 56.196 168.219 56.347ZM168.037 57.169C168.037 57.51 168.085 57.559 168.256 57.388C168.426 57.218 168.426 57.12 168.256 56.95C168.085 56.779 168.037 56.828 168.037 57.169ZM20.091 57.728C20.091 57.935 20.174 58.053 20.274 57.991C20.374 57.929 20.457 57.76 20.457 57.615C20.457 57.47 20.374 57.352 20.274 57.352C20.174 57.352 20.091 57.521 20.091 57.728ZM167.854 58.093C167.854 58.3 167.936 58.418 168.037 58.356C168.137 58.294 168.219 58.125 168.219 57.98C168.219 57.835 168.137 57.717 168.037 57.717C167.936 57.717 167.854 57.886 167.854 58.093ZM19.909 58.63C19.909 58.831 19.991 58.995 20.091 58.995C20.192 58.995 20.274 58.831 20.274 58.63C20.274 58.429 20.192 58.265 20.091 58.265C19.991 58.265 19.909 58.429 19.909 58.63ZM167.671 59.006C167.671 59.213 167.753 59.331 167.854 59.269C167.954 59.207 168.037 59.038 168.037 58.893C168.037 58.749 167.954 58.63 167.854 58.63C167.753 58.63 167.671 58.799 167.671 59.006ZM19.726 59.635C19.726 59.886 19.808 60.091 19.909 60.091C20.009 60.091 20.091 59.886 20.091 59.635C20.091 59.384 20.009 59.178 19.909 59.178C19.808 59.178 19.726 59.384 19.726 59.635ZM112.875 65.708C112.874 69.299 112.824 74.498 112.765 77.26C112.693 80.566 112.721 82.439 112.846 82.74C112.981 83.063 113.04 79.678 113.048 71.187C113.054 64.582 113.018 59.178 112.968 59.178C112.918 59.178 112.876 62.116 112.875 65.708ZM167.489 60.193C167.489 60.459 167.568 60.612 167.671 60.548C167.772 60.486 167.854 60.276 167.854 60.081C167.854 59.886 167.772 59.726 167.671 59.726C167.571 59.726 167.489 59.936 167.489 60.193ZM19.543 60.913C19.543 61.307 19.617 61.528 19.726 61.461C19.826 61.399 19.909 61.153 19.909 60.913C19.909 60.674 19.826 60.427 19.726 60.365C19.617 60.298 19.543 60.519 19.543 60.913ZM167.306 61.461C167.306 61.855 167.38 62.076 167.489 62.009C167.589 61.947 167.671 61.7 167.671 61.461C167.671 61.222 167.589 60.975 167.489 60.913C167.38 60.846 167.306 61.067 167.306 61.461ZM19.361 62.546C19.361 63.004 19.443 63.379 19.543 63.379C19.644 63.379 19.726 63.055 19.726 62.659C19.726 62.263 19.644 61.889 19.543 61.826C19.432 61.758 19.361 62.038 19.361 62.546ZM167.123 63.562C167.123 64.26 167.192 64.637 167.306 64.566C167.406 64.504 167.489 64.052 167.489 63.562C167.489 63.071 167.406 62.619 167.306 62.557C167.192 62.487 167.123 62.863 167.123 63.562ZM19.178 66.575C19.178 68.097 19.248 69.041 19.361 69.041C19.473 69.041 19.543 68.097 19.543 66.575C19.543 65.053 19.473 64.11 19.361 64.11C19.248 64.11 19.178 65.053 19.178 66.575ZM183.239 67.215C183.239 67.566 183.276 67.71 183.322 67.534C183.368 67.358 183.368 67.071 183.322 66.895C183.276 66.719 183.239 66.863 183.239 67.215ZM167.123 69.589C167.123 70.198 167.204 70.685 167.306 70.685C167.407 70.685 167.489 70.198 167.489 69.589C167.489 68.98 167.407 68.493 167.306 68.493C167.204 68.493 167.123 68.98 167.123 69.589ZM19.361 70.492C19.361 71 19.443 71.416 19.543 71.416C19.644 71.416 19.726 71.051 19.726 70.604C19.726 70.158 19.644 69.742 19.543 69.68C19.431 69.611 19.361 69.922 19.361 70.492ZM35.31 70.868C35.31 71.521 35.343 71.788 35.383 71.461C35.424 71.135 35.424 70.6 35.383 70.274C35.343 69.947 35.31 70.215 35.31 70.868ZM167.306 71.689C167.306 72.041 167.388 72.329 167.489 72.329C167.589 72.329 167.671 72.041 167.671 71.689C167.671 71.338 167.589 71.05 167.489 71.05C167.388 71.05 167.306 71.338 167.306 71.689ZM19.543 72.237C19.543 72.589 19.626 72.877 19.726 72.877C19.826 72.877 19.909 72.589 19.909 72.237C19.909 71.886 19.826 71.598 19.726 71.598C19.626 71.598 19.543 71.886 19.543 72.237ZM167.489 72.859C167.489 74.323 168.907 80.526 169.748 82.74C173.181 91.776 177.943 97.622 184.932 101.379C185.735 101.811 186.434 102.215 186.484 102.277C187.205 103.168 194.072 105.331 198.65 106.108C201.704 106.627 201.751 106.606 199.901 105.55C194.357 102.384 190.886 98.638 187.821 92.511C187.168 91.205 186.692 90.342 186.764 90.594C186.837 90.845 187.011 91.276 187.151 91.553C187.402 92.046 187.397 92.055 186.857 92.055C186.424 92.055 186.284 91.959 186.194 91.598C186.131 91.347 186.014 91.142 185.933 91.142C185.263 91.142 182.677 82.281 182.082 77.945L181.862 76.347H175.147H168.432L168.236 75.43C168.127 74.926 167.986 74.063 167.921 73.513C167.811 72.577 167.489 72.089 167.489 72.859ZM183.249 73.516C183.25 74.018 183.285 74.202 183.327 73.924C183.369 73.647 183.368 73.236 183.325 73.011C183.282 72.787 183.247 73.014 183.249 73.516ZM19.726 73.389C19.726 74.918 21.404 81.732 22.187 83.379C22.33 83.68 22.957 85.099 23.58 86.532C26.502 93.252 31.209 98.28 37.849 101.777C38.324 102.027 38.66 102.284 38.595 102.348C38.486 102.457 38.998 102.522 39.159 102.42C39.199 102.395 39.384 102.504 39.57 102.663C40.066 103.087 42.652 104.113 45.023 104.827C46.941 105.406 52.42 106.488 53.397 106.481C53.644 106.48 53.286 106.204 52.439 105.742C46.462 102.485 41.69 97.068 39.156 90.664C38.783 89.721 38.448 88.98 38.412 89.016C38.375 89.052 38.595 89.728 38.899 90.519C39.203 91.309 39.452 91.978 39.452 92.005C39.452 92.032 39.251 92.055 39.004 92.055C37.668 92.055 35.373 85.05 34.053 76.943L33.957 76.352L27.252 76.304L20.548 76.256L20.284 74.658C20.05 73.237 19.726 72.501 19.726 73.389ZM35.48 74.612C35.482 75.014 35.519 75.157 35.563 74.929C35.607 74.702 35.605 74.373 35.559 74.199C35.514 74.024 35.478 74.21 35.48 74.612ZM94.532 79.007C94.605 81.699 95.178 85.936 95.515 86.273C95.605 86.363 95.639 86.542 95.59 86.67C95.54 86.799 95.584 86.956 95.687 87.019C95.79 87.083 95.828 87.256 95.772 87.403C95.715 87.551 95.769 87.671 95.892 87.671C96.026 87.671 96.077 87.818 96.02 88.037C95.968 88.237 96.005 88.402 96.102 88.402C96.203 88.402 96.225 88.581 96.154 88.813C96.085 89.039 96.09 89.165 96.166 89.093C96.243 89.02 96.65 89.808 97.072 90.844C97.71 92.41 98.677 94.183 99.959 96.14C100.56 97.056 102.181 98.725 103.927 100.224C107.42 103.223 112.873 105.605 117.991 106.368C121.47 106.886 122.322 106.94 126.941 106.935C131.23 106.929 132.359 106.868 134.67 106.513C138.806 105.878 138.93 105.727 135.525 105.475C123.065 104.553 114.417 96.961 113.381 86.035C113.271 84.876 113.112 83.849 113.029 83.753C112.514 83.166 113.342 88.132 114.27 91.201C114.354 91.476 114.283 91.524 113.865 91.475C112.613 91.328 111.604 87.096 111.467 81.416L111.371 77.443H103.003H94.635L94.546 76.849C94.497 76.523 94.491 77.494 94.532 79.007Z" fill="#983E5C"/>
<path fill-rule="evenodd" clip-rule="evenodd" d="M136.804 27.85C136.804 28.347 137.01 28.748 137.721 29.63C138.782 30.946 140.042 33.462 140.197 34.575C140.256 34.997 140.347 35.466 140.399 35.616C140.451 35.767 140.546 36.26 140.611 36.712C140.775 37.873 140.753 81.115 140.586 82.557C140.288 85.14 140.113 86.005 139.54 87.724C137.778 93.011 134.221 95.834 128.562 96.437C120.698 97.276 115.215 93.42 113.497 85.845L113.27 84.84L113.372 86.119C113.915 92.915 118.34 99.425 124.538 102.543C127.96 104.265 134.752 105.84 138.427 105.762C139.723 105.735 144.694 103.717 146.713 102.399L147.581 101.832L147.535 64.569L147.489 27.306L142.146 27.258L136.804 27.209V27.85ZM353.973 27.831C353.973 28.31 354.202 28.726 355.006 29.703C357.746 33.032 357.808 33.449 357.808 48.431V60.822H342.098H326.387L326.436 66.53L326.484 72.237L342.146 72.284L357.808 72.331V84.555C357.808 99.622 357.702 100.311 354.866 103.585C354.209 104.343 353.973 104.766 353.973 105.185V105.753H361.826H369.679L369.725 66.484L369.772 27.215H361.872H353.973V27.831ZM290.304 31.233C290.304 33.091 290.331 33.852 290.364 32.922C290.398 31.993 290.398 30.473 290.364 29.543C290.331 28.614 290.304 29.374 290.304 31.233ZM227.845 34.977C227.845 38.795 227.87 40.382 227.899 38.505C227.929 36.628 227.929 33.505 227.899 31.565C227.87 29.624 227.845 31.16 227.845 34.977ZM290.281 37.717C290.282 38.219 290.317 38.403 290.359 38.125C290.401 37.848 290.4 37.437 290.357 37.212C290.314 36.987 290.279 37.215 290.281 37.717ZM52.323 38.602C39.244 43.466 32.729 61.018 36.449 81.37C37.491 87.064 40.628 95.069 42.499 96.802C42.663 96.953 42.614 96.811 42.39 96.484L41.984 95.89H64.625H87.266L88.191 93.288C88.7 91.856 89.418 89.863 89.788 88.858C90.742 86.266 90.754 86.12 90.051 85.756C89.497 85.47 88.423 86.009 87.671 86.951C87.452 87.227 83.994 89.7 82.831 90.414C81.029 91.521 76.685 93.52 75.525 93.777C75.425 93.799 74.798 93.99 74.132 94.202C73.466 94.413 72.768 94.561 72.58 94.531C72.391 94.501 72.138 94.555 72.017 94.651C71.896 94.747 71.707 94.771 71.598 94.703C71.489 94.636 71.3 94.661 71.179 94.759C70.564 95.258 64.633 95.468 62.192 95.078C61.187 94.917 60.18 94.787 59.954 94.788C59.728 94.789 59.543 94.714 59.543 94.62C59.543 94.527 59.366 94.484 59.149 94.526C58.135 94.721 52.974 92.428 50.778 90.806C43.621 85.52 39.934 76.457 39.916 64.11C39.898 51.414 44.152 42.754 52.304 38.888C53.968 38.099 53.976 37.988 52.323 38.602ZM199.716 38.792C186.534 44.192 180.34 61.969 184.498 82.466C186.509 92.376 192.246 101.522 198.443 104.696C199.017 104.99 198.567 104.621 197.169 103.652C194.955 102.119 189.954 96.819 189.954 96.006C189.954 95.943 200.092 95.89 212.482 95.89H235.01L235.245 95.388C235.374 95.112 235.833 93.858 236.266 92.603C236.699 91.347 237.384 89.399 237.789 88.273L238.526 86.226L238.002 85.853C237.311 85.361 237.495 85.282 235.499 86.934C231.939 89.883 226.366 93.02 223.288 93.809C222.715 93.956 222.577 94 222.263 94.137C222.101 94.208 221.731 94.297 221.441 94.335C221.151 94.373 220.913 94.416 220.913 94.431C220.913 94.491 220.146 94.636 219.635 94.674C219.333 94.696 218.998 94.769 218.889 94.837C217.879 95.468 209.087 95.4 208.273 94.755C208.152 94.659 207.967 94.633 207.862 94.698C207.757 94.763 207.569 94.753 207.445 94.676C207.32 94.599 206.941 94.513 206.602 94.486C205.774 94.418 202.17 92.961 200.514 92.025C192.327 87.398 187.699 77.286 187.696 64.018C187.694 51.516 192.298 42.325 200.329 38.8C202.137 38.007 201.649 38 199.716 38.792ZM266.393 39.051C257.215 44.128 253.43 56.062 257.837 66.027C258.193 66.831 258.525 67.67 258.577 67.893C258.677 68.328 261.102 69.982 264.438 71.892C265.473 72.484 266.541 73.102 266.813 73.266C267.084 73.43 268.539 74.284 270.046 75.165C278.501 80.107 281.177 83.313 280.719 87.953C280.374 91.452 276.958 94.196 272.511 94.546C270.669 94.691 265.753 94.743 265.753 94.618C265.753 94.55 265.376 94.488 264.915 94.481C263.089 94.452 259.209 93.152 255.935 91.473C252.306 89.611 249.332 87.22 247.123 84.388C246.176 83.175 246.083 83.106 245.502 83.186C244.652 83.305 244.609 83.415 244.29 86.301C244.256 86.603 244.212 86.849 244.192 86.849C244.14 86.849 244.087 87.322 243.934 89.118C243.862 89.964 243.772 90.815 243.735 91.009C243.697 91.203 243.622 91.703 243.568 92.119C243.514 92.536 243.406 93.329 243.327 93.881C243.248 94.434 243.187 95.091 243.19 95.342L243.196 95.799L270.411 95.837L297.626 95.876L298.011 95.269C301.002 90.565 302.048 82.08 300.356 76.241C298.524 69.919 293.781 64.87 284.86 59.746C283.966 59.233 283.176 58.813 283.103 58.813C283.031 58.813 282.776 58.661 282.536 58.474C282.296 58.288 280.099 57.095 277.653 55.822C269.573 51.616 266.804 49.547 265.365 46.64C264.149 44.184 264.573 41.517 266.483 39.606C267.69 38.4 267.68 38.339 266.393 39.051ZM98.817 94.612C99.203 95.357 99.957 96.451 100.032 96.376C100.07 96.338 99.804 95.864 99.44 95.322C98.677 94.187 98.481 93.963 98.817 94.612ZM100.639 97.26C101.43 98.076 101.527 98.076 100.875 97.26C100.595 96.909 100.288 96.621 100.192 96.621C100.097 96.621 100.298 96.909 100.639 97.26ZM42.868 97.397C44.752 99.89 46.881 102.079 48.652 103.345C49.962 104.282 49.652 103.932 48.061 102.679C46.521 101.466 45.331 100.256 43.809 98.358C43.285 97.704 42.82 97.169 42.776 97.169C42.731 97.169 42.773 97.272 42.868 97.397ZM101.826 98.623C102.128 98.947 102.621 99.382 102.922 99.59C103.392 99.914 103.366 99.857 102.74 99.193C102.338 98.767 101.845 98.332 101.644 98.227C101.391 98.094 101.448 98.217 101.826 98.623ZM106.486 102.244C106.486 102.316 106.816 102.553 107.218 102.771C107.62 102.99 107.908 103.101 107.857 103.018C107.716 102.79 106.484 102.094 106.486 102.244ZM198.995 104.982C199.096 105.086 199.753 105.48 200.457 105.857C201.16 106.234 201.653 106.46 201.553 106.359C201.303 106.109 198.766 104.743 198.995 104.982ZM51.689 105.292C51.689 105.342 52.183 105.632 52.785 105.936C53.388 106.24 53.881 106.448 53.881 106.398C53.881 106.348 53.388 106.058 52.785 105.753C52.183 105.449 51.689 105.241 51.689 105.292Z" fill="#345267"/>
<path fill-rule="evenodd" clip-rule="evenodd" d="M147.535 64.4751C147.561 84.9681 147.628 101.735 147.685 101.735C147.964 101.735 150.32 99.8911 151.288 98.9141C154.097 96.0821 155.709 93.3201 157.104 88.9501L157.717 87.0321L157.765 57.2421L157.813 27.4511L156.413 27.3331C155.643 27.2681 153.32 27.2151 151.251 27.2151H147.489L147.535 64.4751ZM369.802 27.3361C369.735 27.4031 369.68 45.0751 369.68 66.6061V105.753H373.501C378.304 105.753 377.9 105.941 377.9 103.713C377.9 101.945 377.769 101.396 377.218 100.845C377.024 100.651 377.013 100.553 377.176 100.452C377.295 100.378 377.315 100.288 377.22 100.25C376.22 99.8601 375.72 37.9711 376.689 34.5211C376.872 33.8681 377.019 33.1081 377.016 32.8331C377.013 32.5581 377.11 32.2711 377.231 32.1941C377.701 31.8961 377.9 30.9851 377.9 29.1241V27.2151H373.912C371.718 27.2151 369.869 27.2691 369.802 27.3361ZM268.174 94.7431C268.45 94.7851 268.902 94.7851 269.178 94.7431C269.454 94.7011 269.228 94.6671 268.676 94.6671C268.123 94.6671 267.897 94.7011 268.174 94.7431ZM243.022 96.1981C242.754 97.2631 242.696 99.7271 242.932 100.011C243.167 100.295 246.933 102.166 248.219 102.639C248.571 102.769 249.208 103.029 249.635 103.219C250.062 103.409 250.719 103.613 251.096 103.672C251.473 103.732 251.914 103.852 252.076 103.939C252.239 104.026 252.428 104.04 252.497 103.971C252.566 103.903 252.691 103.956 252.774 104.09C253.136 104.677 284.979 104.844 286.21 104.266C286.798 103.989 287.891 103.689 288.131 103.737C288.187 103.748 288.358 103.631 288.512 103.477C288.667 103.323 289.013 103.145 289.282 103.082C291.081 102.662 297.534 97.1211 297.534 95.9971C297.534 95.9401 285.291 95.8721 270.328 95.8461L243.122 95.7991L243.022 96.1981ZM42.393 96.4841C44.211 99.1221 46.921 101.934 49.259 103.607L50.726 104.658H65.101C74.109 104.658 79.601 104.591 79.81 104.479C79.993 104.381 80.437 104.264 80.796 104.22C81.155 104.175 81.548 104.078 81.669 104.003C81.789 103.928 82.059 103.858 82.268 103.846C82.56 103.83 84.62 103.102 84.888 102.92C84.942 102.884 86.652 97.8921 87.03 96.6671L87.27 95.8901H64.627H41.984L42.393 96.4841ZM189.954 96.0061C189.954 96.8441 195.122 102.283 197.356 103.797L198.64 104.666L212.927 104.66C225.681 104.654 227.308 104.621 228.082 104.354C228.559 104.189 229.402 103.951 229.954 103.824C232.444 103.253 232.676 103.086 233.238 101.461C234.737 97.1331 235.067 96.1521 235.068 96.0271C235.068 95.9521 224.918 95.8901 212.511 95.8901C200.105 95.8901 189.954 95.9431 189.954 96.0061ZM310.948 123.836C310.948 126.699 310.973 127.87 311.004 126.438C311.035 125.007 311.035 122.664 311.004 121.233C310.973 119.801 310.948 120.973 310.948 123.836ZM183.782 145.889C184.456 145.924 185.606 145.924 186.339 145.889C187.072 145.854 186.521 145.826 185.114 145.825C183.708 145.825 183.108 145.854 183.782 145.889ZM322.149 145.886C322.478 145.926 322.971 145.926 323.245 145.884C323.52 145.842 323.251 145.809 322.648 145.81C322.046 145.811 321.821 145.845 322.149 145.886ZM349.452 145.884C349.728 145.926 350.18 145.926 350.457 145.884C350.733 145.842 350.507 145.808 349.954 145.808C349.402 145.808 349.176 145.842 349.452 145.884Z" fill="#185474"/>
<path fill-rule="evenodd" clip-rule="evenodd" d="M365.982 27.1679L377.9 27.2169V29.1249C377.9 30.9849 377.701 31.8959 377.231 32.1939C377.11 32.2709 377.019 32.5989 377.029 32.9249L377.047 33.5159L377.31 32.8769C377.454 32.5249 377.634 32.1959 377.71 32.1459C377.786 32.0959 377.983 31.7929 378.147 31.4719C378.311 31.1519 378.861 30.3399 379.369 29.6689C380.146 28.6429 380.285 28.3419 380.238 27.7859L380.183 27.1229L367.123 27.1209L354.064 27.1189L365.982 27.1679ZM156.851 27.3489L157.813 27.4159L157.765 57.2239L157.717 87.0319L157.105 88.9499C156.769 90.0049 156.293 91.3509 156.049 91.9429C155.431 93.4399 155.621 93.4189 156.316 91.9129C157.116 90.1759 157.565 88.8119 158.103 86.4839C159.069 82.3029 159.072 82.2349 159.083 59.5699C159.089 47.1559 159.167 37.7909 159.273 36.7709C159.553 34.0729 160.775 30.9799 162 29.8709C162.206 29.6849 162.374 29.4229 162.374 29.2879C162.374 29.1539 162.539 28.9419 162.74 28.8159C163 28.6539 163.105 28.3899 163.105 27.9009V27.2149L159.498 27.2479C157.514 27.2669 156.323 27.3119 156.851 27.3489ZM267.215 49.2239C267.555 49.5749 267.875 49.8629 267.926 49.8629C267.976 49.8629 267.738 49.5749 267.397 49.2239C267.056 48.8719 266.737 48.5839 266.686 48.5839C266.636 48.5839 266.874 48.8719 267.215 49.2239ZM248.676 86.2099C249.171 86.7119 249.616 87.1229 249.667 87.1229C249.717 87.1229 249.353 86.7119 248.858 86.2099C248.364 85.7079 247.918 85.2969 247.868 85.2969C247.817 85.2969 248.181 85.7079 248.676 86.2099ZM193.786 86.0219C193.998 86.3199 194.266 86.6219 194.38 86.6919C194.494 86.7629 194.357 86.5189 194.075 86.1499C193.465 85.3499 193.235 85.2479 193.786 86.0219ZM235.068 87.1459C234.432 87.7039 234.432 87.7039 235.017 87.3149C235.341 87.0999 235.654 86.8449 235.713 86.7489C235.889 86.4639 235.743 86.5539 235.068 87.1459ZM243.695 90.2279C243.695 90.5799 243.733 90.7239 243.779 90.5479C243.825 90.3719 243.825 90.0839 243.779 89.9089C243.733 89.7329 243.695 89.8769 243.695 90.2279ZM136.156 93.1959L135.434 93.9729L136.21 93.2509C136.932 92.5789 137.07 92.4199 136.932 92.4199C136.902 92.4199 136.553 92.7689 136.156 93.1959ZM57.169 94.0449C57.32 94.1369 57.772 94.2609 58.174 94.3199C58.691 94.3949 58.771 94.3819 58.447 94.2749C57.609 93.9959 56.875 93.8639 57.169 94.0449ZM205.388 94.1619C205.689 94.2999 206.1 94.4109 206.301 94.4089C206.502 94.4069 206.297 94.2879 205.845 94.1459C204.831 93.8259 204.668 93.8319 205.388 94.1619ZM73.379 94.1949C73.103 94.2369 72.877 94.3409 72.877 94.4269C72.877 94.5119 73.185 94.4979 73.562 94.3949C74.679 94.0899 74.605 94.0089 73.379 94.1949ZM273.607 94.1959C273.356 94.2409 273.079 94.3459 272.992 94.4299C272.904 94.5139 273.189 94.5029 273.626 94.4049C274.845 94.1309 274.832 93.9759 273.607 94.1959ZM296.949 96.8489C296.419 97.5559 296.208 97.8999 296.305 97.8999C296.344 97.8999 296.642 97.5299 296.967 97.0779C297.64 96.1399 297.626 95.9479 296.949 96.8489ZM152.226 97.9449L151.689 98.5389L152.283 98.0019C152.61 97.7069 152.877 97.4399 152.877 97.4089C152.877 97.2679 152.726 97.3919 152.226 97.9449ZM242.588 99.2169C242.562 99.9419 242.622 100.113 242.968 100.294C243.362 100.501 243.366 100.495 243.073 100.164C242.904 99.9729 242.733 99.4889 242.693 99.0869L242.618 98.3559L242.588 99.2169ZM294.967 99.1319L294.338 99.8169L295.023 99.1879C295.66 98.6019 295.792 98.4469 295.652 98.4469C295.622 98.4469 295.314 98.7559 294.967 99.1319ZM148.95 100.929L148.402 101.4L148.995 101.007C149.322 100.791 149.589 100.579 149.589 100.536C149.589 100.399 149.512 100.446 148.95 100.929ZM377.103 100.731C377.161 100.881 377.268 101.005 377.342 101.005C377.739 101.005 378.214 105.279 377.854 105.613C377.829 105.636 372.466 105.699 365.936 105.753L354.064 105.85L366.88 105.893C373.929 105.917 379.826 105.886 379.985 105.825C380.541 105.612 380.332 104.63 379.522 103.65C379.108 103.149 378.474 102.226 378.113 101.598C377.538 100.598 376.813 99.9759 377.103 100.731ZM247.196 102.37C247.831 102.859 253.585 104.841 254.615 104.926C254.768 104.939 254.981 105.003 255.089 105.07C255.372 105.245 259.447 106.046 262.009 106.43C265.588 106.966 276.318 106.909 279.543 106.337C283.253 105.679 288.219 104.189 288.219 103.734C288.219 103.576 286.693 104 286.045 104.338C285.704 104.516 282.165 104.564 270.064 104.558C254.208 104.549 253.037 104.517 252.774 104.09C252.691 103.956 252.566 103.903 252.497 103.971C252.428 104.04 252.239 104.026 252.076 103.939C251.914 103.852 251.473 103.732 251.096 103.672C250.719 103.613 250.062 103.409 249.635 103.22C248.064 102.525 246.846 102.101 247.196 102.37ZM290.411 102.539C290.059 102.768 289.566 103.009 289.315 103.074C288.753 103.221 288.289 103.51 288.415 103.635C288.545 103.766 291.142 102.456 291.142 102.26C291.142 102.056 291.164 102.048 290.411 102.539ZM84.932 102.756C84.932 102.95 82.833 103.807 82.268 103.843C82.059 103.856 81.789 103.928 81.669 104.003C81.548 104.078 81.155 104.175 80.796 104.22C80.437 104.264 79.993 104.381 79.81 104.479C79.601 104.591 74.113 104.662 65.172 104.668L50.868 104.679L52.374 105.439C53.203 105.858 53.881 106.297 53.881 106.416C53.881 107.099 68.559 106.971 73.242 106.247C78.891 105.373 85.685 103.341 85.058 102.714C84.988 102.644 84.932 102.663 84.932 102.756ZM231.872 103.241C231.37 103.435 230.44 103.709 229.806 103.851C229.172 103.993 228.474 104.212 228.254 104.337C227.946 104.513 224.493 104.587 213.333 104.658L198.813 104.749L200.327 105.531C201.16 105.961 201.799 106.381 201.748 106.463C201.225 107.309 217.255 106.915 222.895 105.944C224.085 105.739 225.097 105.571 225.143 105.571C225.189 105.571 225.181 105.496 225.125 105.405C225.068 105.314 225.174 105.279 225.359 105.327C226.035 105.504 233.209 103.245 232.871 102.961C232.824 102.922 232.374 103.048 231.872 103.241ZM144.84 103.47C144.388 103.712 144.083 103.914 144.163 103.919C144.356 103.93 145.753 103.212 145.753 103.101C145.753 102.98 145.761 102.977 144.84 103.47ZM69.717 118.62C68.443 119.074 66.349 121 66.649 121.441C66.676 121.48 66.607 121.568 66.495 121.637C66.026 121.927 65.877 125.662 66.335 125.662C66.429 125.662 66.458 125.738 66.401 125.832C66.253 126.071 67.254 127.499 68.113 128.276C69.853 129.847 73.326 129.908 75.404 128.402C76.349 127.718 76.356 127.385 75.445 126.495L74.726 125.792L74.121 126.108C73.788 126.281 73.276 126.55 72.983 126.707C70.865 127.834 68.379 125.563 69.041 123.105C69.687 120.705 72.11 120.106 74.22 121.824C74.566 122.106 76.15 120.662 76.161 120.055C76.181 118.87 71.769 117.888 69.717 118.62ZM133.948 118.697C129.494 120.35 129.082 126.733 133.295 128.807C138.21 131.226 143.335 127.146 141.814 122.025C140.971 119.186 137.073 117.537 133.948 118.697ZM227.724 118.526C224.177 119.67 224.894 124.186 228.767 125.092C230.732 125.551 231.496 126.103 230.938 126.661C230.26 127.339 228.755 127.178 227.402 126.283C226.543 125.715 226.521 125.721 225.676 126.738C224.867 127.711 224.887 127.793 226.105 128.528C229.6 130.636 233.79 129.316 233.79 126.107C233.79 124.048 232.859 123.231 229.529 122.365C228.232 122.028 227.857 121.575 228.415 121.018C228.838 120.594 229.951 120.668 230.974 121.186C232.155 121.786 232.233 121.773 232.876 120.886C233.66 119.804 233.599 119.564 232.389 118.972C231.276 118.428 228.772 118.188 227.724 118.526ZM258.882 118.492C258.693 118.62 258.131 119.907 255.445 126.373C254.145 129.503 254.129 129.343 255.752 129.277L257.074 129.224L257.533 128.079L257.991 126.935L260.067 126.984L262.142 127.032L262.61 128.174L263.078 129.315H264.416C266.053 129.315 266.035 129.462 264.766 126.452C264.223 125.164 263.25 122.836 262.604 121.279L261.428 118.447L260.258 118.4C259.614 118.374 258.995 118.416 258.882 118.492ZM292.968 118.527C288.245 119.969 287.622 126.736 292.014 128.893C295.978 130.839 300.255 128.451 300.426 124.195C300.593 120.026 297.001 117.296 292.968 118.527ZM79.817 123.927V129.315H83.927H88.037V128.128V126.941H85.297H82.557V126.027V125.114H84.932H87.306V123.836V122.557H84.932H82.557V121.735V120.913H85.297H88.037V119.726V118.539H83.927H79.817V123.927ZM92.055 123.927V129.315H93.333H94.612L94.618 126.256L94.623 123.196L95.029 123.674C95.654 124.412 95.865 124.681 97.699 127.078L99.411 129.315H100.573H101.735V123.927V118.539H100.457H99.178L99.177 121.598V124.658L98.791 124.018C98.404 123.377 96.604 121.079 96.072 120.547C95.916 120.391 95.51 119.875 95.169 119.401L94.55 118.539H93.302H92.055V123.927ZM105.388 119.726V120.913H106.941H108.493V125.114V129.315H109.863H111.233V125.114V120.913H112.785H114.338V119.726V118.539H109.863H105.388V119.726ZM117.808 123.927V129.315H119.178H120.548V127.661V126.006L121.314 126.063C122.052 126.117 122.118 126.175 123.178 127.717L124.276 129.315H125.882C126.766 129.315 127.489 129.247 127.489 129.163C127.489 128.972 126.057 126.918 125.75 126.669C125.365 126.356 124.876 125.479 125.087 125.479C126.087 125.479 127.21 123.329 127.088 121.648C126.91 119.191 125.647 118.539 121.063 118.539H117.808V123.927ZM152.362 122.603L152.42 126.667L152.927 127.529C154.176 129.653 158.23 130.221 160.252 128.555C161.608 127.437 161.724 126.984 161.795 122.511L161.857 118.539H160.58H159.304L159.237 121.963C159.153 126.308 158.889 126.941 157.157 126.941C155.261 126.941 154.888 126.079 154.887 121.689L154.886 118.539H153.595H152.304L152.362 122.603ZM166.027 123.927V129.315H167.306H168.584V126.174V123.033L169.172 123.845C169.496 124.292 169.809 124.699 169.869 124.749C169.928 124.799 170.745 125.847 171.684 127.078L173.392 129.315H174.55H175.708V123.927V118.539H174.429H173.151V121.581V124.623L172.384 123.481C171.962 122.853 171.196 121.867 170.681 121.291C170.167 120.714 169.471 119.859 169.134 119.391L168.523 118.539H167.275H166.027V123.927ZM180.091 123.927V129.315H181.461H182.831V123.927V118.539H181.461H180.091V123.927ZM186.301 118.676C186.3 118.751 186.786 120.046 187.38 121.553C187.973 123.059 188.898 125.424 189.435 126.808L190.411 129.324L191.754 129.274L193.098 129.224L193.887 127.215C194.322 126.11 195.225 123.808 195.896 122.1C196.566 120.393 197.156 118.893 197.207 118.767C197.276 118.596 196.933 118.539 195.832 118.539H194.364L193.968 119.589C193.75 120.167 193.36 121.215 193.1 121.918C192.841 122.621 192.513 123.378 192.372 123.599C192.23 123.821 192.168 124.088 192.232 124.193C192.297 124.298 192.27 124.384 192.171 124.384C192.073 124.384 191.935 124.648 191.864 124.97L191.735 125.557L191.381 124.559C191.186 124.011 190.61 122.432 190.102 121.05L189.178 118.539H187.74C186.949 118.539 186.301 118.6 186.301 118.676ZM200.731 123.927V129.315H204.84H208.95V128.128V126.941H206.119H203.288V126.027V125.114H205.753H208.219V123.836V122.557H205.753H203.288V121.735V120.913H206.119H208.95V119.726V118.539H204.84H200.731V123.927ZM212.785 123.927V129.315H214.155H215.525V127.671V126.027H216.251C216.961 126.027 217 126.062 218.082 127.671L219.188 129.315H220.644C222.438 129.315 222.438 129.313 220.981 127.225C219.814 125.553 219.82 125.597 220.684 125.102C221.538 124.613 222.124 122.355 221.754 120.983C221.203 118.938 220.287 118.548 216.027 118.543L212.785 118.539V123.927ZM237.808 123.927V129.315H239.087H240.365V123.927V118.539H239.087H237.808V123.927ZM243.836 119.726V120.913H245.479H247.123V125.114V129.315H248.493H249.863V125.114V120.913H251.507H253.151V119.726V118.539H248.493H243.836V119.726ZM269.224 123.916V129.315H270.594H271.963V127.671V126.027H272.661C273.355 126.027 274.214 126.913 275.449 128.904C275.68 129.277 275.846 129.315 277.213 129.315C279.042 129.315 279.034 129.372 277.53 127.215C276.492 125.726 276.382 125.493 276.676 125.4C278.19 124.919 278.911 121.802 277.906 120.085C277.147 118.791 276.621 118.639 272.648 118.573L269.224 118.517V123.916ZM282.374 123.927V129.315H283.744H285.114V123.927V118.539H283.744H282.374V123.927ZM310.959 123.944V129.35L314.064 129.273C319.174 129.148 320.872 127.904 321.06 124.15C321.261 120.169 319.188 118.551 313.881 118.543L310.959 118.539V123.944ZM324.749 123.927V129.315H328.95H333.151V128.128V126.941H330.411H327.671V126.027V125.114H330.046H332.42V123.836V122.557H330.046H327.671V121.735V120.913H330.411H333.151V119.726V118.539H328.95H324.749V123.927ZM137.717 121.255C139.37 122.454 139.592 124.736 138.192 126.136C136.722 127.607 134.646 127.15 133.562 125.119C133.143 124.334 133.003 123.105 133.333 123.105C133.434 123.105 133.516 122.985 133.516 122.837C133.516 121.371 136.387 120.289 137.717 121.255ZM295.772 121.023C298.9 122.089 298.127 126.942 294.825 126.969C291.649 126.995 290.685 122.398 293.589 121.079C294.51 120.66 294.693 120.656 295.772 121.023ZM123.72 121.292C124.983 122.285 124.035 123.47 121.977 123.47H120.548V122.192V120.913H121.893C122.978 120.913 123.332 120.987 123.72 121.292ZM218.73 121.362C219.82 122.452 218.938 123.47 216.903 123.47H215.525V122.192V120.913H216.903C218.123 120.913 218.333 120.965 218.73 121.362ZM275.366 121.316C276.43 122.379 275.43 123.46 273.379 123.466L271.963 123.47V122.173V120.876L273.51 120.94C274.659 120.988 275.135 121.084 275.366 121.316ZM316.399 121.162C319.446 122.455 318.484 126.654 315.085 126.897L313.79 126.99V123.951V120.913H314.8C315.356 120.913 316.075 121.025 316.399 121.162ZM260.923 123.881L261.171 124.566H260.083C259.238 124.566 258.995 124.505 258.995 124.292C258.995 124.142 259.063 124.018 259.144 124.018C259.226 124.018 259.485 123.557 259.718 122.993L260.143 121.968L260.409 122.582C260.555 122.92 260.786 123.505 260.923 123.881ZM23.33 137.357C18.095 138.675 17.5 146.413 22.495 148.213C24.896 149.078 29.041 148.032 29.041 146.562C29.041 145.702 27.415 144.607 26.864 145.096C24.003 147.63 20.093 143.832 22.613 140.966C23.722 139.706 26.199 139.622 26.939 140.819C27.4 141.566 29.278 139.624 28.851 138.843C28.235 137.717 25.174 136.892 23.33 137.357ZM69.763 137.406C68.624 137.729 67.709 138.327 67.192 139.086C66.953 139.437 66.692 139.724 66.611 139.725C66.53 139.725 66.29 140.116 66.078 140.594C65.447 142.01 65.64 145.571 66.346 145.571C66.455 145.571 66.495 145.621 66.434 145.682C66.317 145.799 66.339 145.833 67.221 146.888C68.924 148.924 73.111 149.172 75.176 147.358C75.954 146.675 75.952 146.545 75.146 145.604C74.342 144.665 73.411 144.752 72.651 145.836C72.577 145.941 72.516 145.956 72.514 145.868C72.513 145.78 72.409 145.787 72.283 145.883C71.981 146.113 70.685 146.177 70.685 145.962C70.685 145.869 70.483 145.742 70.237 145.68C69.99 145.619 69.587 145.301 69.341 144.976C67.341 142.325 69.889 138.75 72.694 140.273C74.346 141.17 74.123 141.177 75.002 140.206C75.945 139.164 75.944 139.168 75.282 138.507C74.256 137.484 71.459 136.926 69.763 137.406ZM134.886 137.282C128.448 138.921 128.404 147.262 134.827 148.503C137.033 148.929 140.639 147.496 140.639 146.193C140.639 146.073 140.753 145.932 140.891 145.878C141.6 145.606 141.987 142.394 141.482 140.979C140.629 138.593 137.227 136.686 134.886 137.282ZM149.358 137.357C144.062 138.69 143.473 146.351 148.523 148.223C150.88 149.097 155.068 148.021 155.068 146.542C155.068 145.671 153.335 144.562 152.864 145.13C151.702 146.53 148.362 145.96 148.317 144.353C148.313 144.236 148.208 144.106 148.082 144.064C147.552 143.887 147.807 142.053 148.481 141.202C149.731 139.624 151.193 139.517 153.097 140.863C153.439 141.105 154.008 140.693 154.738 139.674C155.724 138.298 151.997 136.692 149.358 137.357ZM32.877 142.922V148.493H34.247H35.616V142.922V137.352H34.247H32.877V142.922ZM40 142.922V148.493H44.201H48.402V147.325C48.402 145.88 48.532 145.936 45.191 145.936H42.557V145.023V144.11H45.114H47.671V142.922V141.735H45.114H42.557V140.822V139.909H45.388H48.219V138.63V137.352H44.11H40V142.922ZM52.237 142.922V148.493H53.512H54.786L54.836 145.347L54.886 142.201L56.701 144.662C57.699 146.016 58.747 147.365 59.029 147.66C59.312 147.956 59.543 148.264 59.543 148.345C59.543 148.427 60.078 148.493 60.731 148.493H61.918V142.922V137.352H60.639H59.361V140.381C59.361 142.141 59.291 143.384 59.193 143.349C58.985 143.273 55.345 138.53 55.336 138.323C55.312 137.711 54.611 137.352 53.441 137.352H52.237V142.922ZM79.452 142.915V148.493H80.916H82.38L82.331 142.968L82.283 137.443L80.868 137.39L79.452 137.336V142.915ZM89.957 138.013C89.805 138.377 89.68 138.744 89.68 138.829C89.68 139.052 89.093 140.318 88.84 140.639C88.466 141.115 85.662 147.899 85.662 148.329C85.662 148.419 86.258 148.493 86.986 148.493H88.311L88.899 147.215L89.488 145.936L91.456 145.938L93.425 145.939L93.882 147.171L94.34 148.402L95.846 148.455C96.72 148.486 97.352 148.435 97.352 148.333C97.352 148.123 96.922 147.114 95.944 145.023C95.291 143.627 93.543 139.473 92.965 137.945C92.742 137.355 92.734 137.352 91.487 137.352H90.233L89.957 138.013ZM101.988 137.631C100.357 138.346 99.642 140.714 100.535 142.441C100.866 143.081 101.898 143.637 103.47 144.024C105.602 144.548 106.255 145.11 105.479 145.753C105.216 145.972 103.427 146.124 103.333 145.936C103.212 145.692 101.21 144.804 101.031 144.915C100.653 145.149 99.694 146.684 99.782 146.915C100.461 148.683 106.168 149.038 107.644 147.403C109.637 145.197 108.451 142.664 104.956 141.661C103.287 141.183 102.831 140.944 102.831 140.548C102.831 139.762 104.361 139.66 105.73 140.354C106.93 140.962 106.9 140.968 107.561 139.938C108.345 138.717 108.302 138.563 107.003 137.914C105.724 137.275 103.133 137.129 101.988 137.631ZM120.548 137.557C119.344 138.037 118.721 139.186 118.721 140.929C118.721 142.764 119.403 143.366 122.427 144.198C124.5 144.769 124.713 145.987 122.745 146.015C122.24 146.023 121.826 145.967 121.826 145.891C121.826 145.815 121.715 145.753 121.578 145.753C121.441 145.753 121.027 145.548 120.657 145.297C119.798 144.714 119.534 144.722 119.146 145.342C118.974 145.619 118.623 146.028 118.366 146.253L117.9 146.66L118.356 147.035C120.972 149.183 125.524 148.948 126.586 146.609C127.684 144.189 126.767 142.808 123.301 141.664C121.493 141.067 121.03 140.702 121.448 140.198C121.818 139.752 123.091 139.833 124.092 140.365C125.194 140.951 125.106 140.973 125.918 139.909C126.778 138.781 126.713 138.583 125.255 137.894C124.029 137.314 121.595 137.139 120.548 137.557ZM158.904 142.922V148.493H160.183H161.461V142.922V137.352H160.183H158.904V142.922ZM169.37 137.671C169.305 137.847 168.598 139.553 167.799 141.461C164.602 149.088 164.717 148.493 166.439 148.493H167.764L168.174 147.436C168.4 146.854 168.584 146.279 168.584 146.157C168.584 145.996 169.183 145.936 170.776 145.936C172.584 145.936 172.968 145.983 172.968 146.205C172.968 146.353 173.169 146.928 173.415 147.483L173.861 148.493H175.241C176 148.493 176.621 148.454 176.621 148.406C176.621 148.264 175.214 144.79 173.883 141.644C173.202 140.037 172.537 138.413 172.405 138.037L172.164 137.352H170.825C169.716 137.352 169.466 137.406 169.37 137.671ZM179.909 142.922V148.493H183.935H187.961L187.908 147.195L187.854 145.897L185.251 145.925L182.648 145.953V141.652V137.352H181.279H179.909V142.922ZM191.416 142.922V148.493H195.616H199.817V147.215V145.936H196.986H194.155V145.023V144.11H196.53H198.904V142.922V141.735H196.53H194.155V140.822V139.909H196.895H199.635V138.63V137.352H195.525H191.416V142.922ZM204.983 137.723C203.887 138.28 203.196 139.695 203.339 141.087C203.518 142.82 204.141 143.356 206.849 144.107C208.284 144.505 208.95 144.878 208.95 145.285C208.95 146.2 207.097 146.266 205.572 145.405C204.336 144.707 204.204 144.739 203.396 145.933C202.468 147.302 204.049 148.351 207.196 148.456C210.259 148.558 211.507 147.607 211.507 145.169C211.507 143.175 210.674 142.28 208.311 141.735C206.898 141.409 206.027 140.989 206.027 140.634C206.027 139.745 207.456 139.608 208.93 140.355C210.107 140.952 210.029 140.972 210.765 139.887C211.499 138.805 211.44 138.594 210.212 137.904C209.04 137.247 206.118 137.145 204.983 137.723ZM220.822 137.541C220.822 137.646 221.299 138.447 221.882 139.322C222.465 140.197 223.41 141.662 223.983 142.577L225.023 144.24V146.367V148.493H226.301H227.58V146.372V144.251L228.407 142.923C228.862 142.193 229.403 141.402 229.61 141.164C230.112 140.584 231.781 137.81 231.781 137.555C231.781 137.325 229.086 137.269 228.743 137.491C228.629 137.565 228.064 138.447 227.487 139.452C226.911 140.457 226.417 141.304 226.39 141.335C226.335 141.398 224.931 139.067 224.4 138.032L224.052 137.352H222.437C221.442 137.352 220.822 137.424 220.822 137.541ZM241.461 142.922V148.493H242.831H244.201V146.301V144.11H246.21H248.219V146.301V148.493H249.498H250.776V142.922V137.352H249.498H248.219V139.543V141.735H246.21H244.201V139.543V137.352H242.831H241.461V142.922ZM254.977 141.063C254.977 147.237 255.791 148.518 259.726 148.542C263.628 148.566 264.475 147.232 264.475 141.063V137.352H263.21H261.946L261.881 140.868C261.8 145.305 261.42 146.12 259.486 146.006C257.92 145.913 257.537 144.83 257.535 140.502L257.534 137.352H256.256H254.977V141.063ZM268.676 142.922V148.493H269.95H271.224L271.274 145.347L271.324 142.201L272.511 144.059C274.011 146.405 274.024 146.405 275.57 144.082L276.804 142.229L276.854 145.361L276.904 148.493H278.178H279.452V142.922V137.352H278.09H276.728L276.233 138.219C275.503 139.501 274.125 141.735 274.065 141.735C274.037 141.735 273.538 140.934 272.957 139.954C272.376 138.975 271.79 137.989 271.654 137.763C271.433 137.395 271.263 137.352 270.041 137.352H268.676V142.922ZM287.207 137.763C287.14 137.989 286.346 139.941 285.444 142.1C282.952 148.067 282.922 148.14 282.922 148.323C282.922 148.416 283.532 148.493 284.276 148.493H285.63L286.131 147.215L286.633 145.936H288.676H290.719L291.22 147.215L291.722 148.493H293.076C293.82 148.493 294.429 148.419 294.429 148.329C294.429 148.067 293.283 145.174 291.961 142.1C291.292 140.543 290.581 138.838 290.382 138.311L290.019 137.352H288.675C287.439 137.352 287.321 137.385 287.207 137.763ZM297.9 142.922V148.493H299.174H300.448L300.498 145.372L300.548 142.251L301.805 143.911C302.496 144.824 303.147 145.571 303.251 145.571C303.355 145.571 303.389 145.622 303.327 145.684C303.265 145.746 303.313 145.899 303.433 146.025C303.554 146.15 304.023 146.754 304.475 147.366L305.297 148.478L306.438 148.486L307.58 148.493V142.922V137.352H306.301H305.023L305.017 140.411C305.012 143.162 304.984 143.434 304.739 143.105C304.59 142.904 304.196 142.452 303.865 142.1C303.08 141.268 301.005 138.516 301.005 138.307C301.005 137.776 300.127 137.352 299.029 137.352H297.9V142.922ZM311.963 142.922V148.493H313.333H314.703V142.922V137.352H313.333H311.963V142.922ZM319.087 142.925V148.537L321.963 148.452C327.122 148.299 329.037 146.803 329.04 142.922C329.043 139.065 327.096 137.545 321.963 137.397L319.087 137.313V142.925ZM335.54 138.037C335.127 139.209 333.316 143.441 332.969 144.044C332.673 144.558 331.142 148.232 331.142 148.428C331.142 148.472 331.813 148.484 332.634 148.455L334.126 148.402L334.579 147.163L335.032 145.925L337.036 145.976L339.039 146.027L339.495 147.26L339.95 148.493H341.391C342.421 148.493 342.831 148.428 342.831 148.265C342.831 147.96 341.034 143.514 340.86 143.387C340.737 143.298 338.92 139.112 338.458 137.854C338.282 137.373 338.221 137.352 337.028 137.352H335.781L335.54 138.037ZM346.119 142.944V148.536L349.115 148.464L352.112 148.391L353.355 147.757C354.179 147.337 354.738 146.908 355.013 146.484C355.241 146.132 355.525 145.731 355.643 145.592C356.554 144.525 356.554 141.182 355.643 140.236C355.478 140.064 355.096 139.596 354.795 139.195C353.754 137.81 352.254 137.363 348.63 137.356L346.119 137.352V142.944ZM360 142.922V148.493H364.201H368.402V147.215V145.936H365.571H362.74V145.023V144.11H365.205H367.671V142.922V141.735H365.205H362.74V140.822V139.909H365.571H368.402V138.63V137.352H364.201H360V142.922ZM373.631 137.766C371.757 138.846 371.486 142.148 373.185 143.196C373.518 143.401 374.486 143.783 375.336 144.045C377.218 144.624 377.534 144.81 377.534 145.337C377.534 146.175 375.724 146.244 374.374 145.458C373.024 144.672 372.971 144.677 372.273 145.667C371.385 146.927 371.924 147.686 374.148 148.308C377.649 149.289 380.183 147.936 380.183 145.087C380.183 142.878 379.76 142.509 376.032 141.471C374.849 141.141 374.428 140.667 374.899 140.195C375.4 139.695 376.368 139.765 377.689 140.399C378.799 140.93 378.883 140.893 379.698 139.522L380.091 138.862L379.609 138.38C378.553 137.325 375.024 136.962 373.631 137.766ZM137.059 140.163C139.046 140.993 139.378 143.737 137.683 145.307C135.154 147.646 131.311 143.684 133.571 141.069C134.474 140.024 135.863 139.663 137.059 140.163ZM323.872 140.116C327.756 140.949 326.937 145.716 322.877 145.91L321.644 145.969V142.939V139.909H322.274C322.621 139.909 323.34 140.002 323.872 140.116ZM351.947 140.426C354.688 141.849 353.402 145.665 350.101 145.903L349.041 145.98V142.918V139.857L350.173 139.975C350.796 140.04 351.594 140.243 351.947 140.426ZM171.872 143.511C171.872 143.539 171.379 143.562 170.776 143.562C170.174 143.562 169.68 143.523 169.68 143.477C169.68 143.328 170.315 142.013 170.432 141.918C170.494 141.868 170.606 141.631 170.68 141.392C170.792 141.033 171.872 142.953 171.872 143.511ZM91.846 141.993C92.559 143.605 92.57 143.562 91.444 143.562H90.444L90.915 142.374C91.474 140.964 91.404 140.993 91.846 141.993ZM289.234 142.197C289.832 143.55 289.827 143.562 288.676 143.562C287.518 143.562 287.546 143.624 288.081 142.245C288.587 140.94 288.676 140.936 289.234 142.197ZM337.595 142.42L338.057 143.562H337.053C335.921 143.562 335.934 143.614 336.652 141.938C337.056 140.995 337.008 140.971 337.595 142.42Z" fill="#144C6C"/>
</svg>
